<?xml version="1.0" encoding="utf-8"?>
<!-- Generator: Adobe Illustrator 27.2.0, SVG Export Plug-In . SVG Version: 6.00 Build 0)  -->
<svg version="1.1" id="Layer_1" xmlns="http://www.w3.org/2000/svg" xmlns:xlink="http://www.w3.org/1999/xlink" x="0px" y="0px"
	 viewBox="0 0 120 120" style="enable-background:new 0 0 120 120;" xml:space="preserve">
<style type="text/css">
	.st0{fill:#091720;}
	.st1{fill:#0982C6;}
	.st2{fill:#F9F9F9;}
</style>
<g id="Layer_2_00000127745239263460228980000015534961501958078618_">
	<g id="Layer_1-2">
		<g>
			<path class="st0" d="M117.3,44.3C108.9,12.6,76.4-6.3,44.8,2.1C13.1,10.5-5.8,42.9,2.5,74.6c0,0.1,0,0.2,0.1,0.3
				c0.1,0.3,0.1,0.6,0.2,0.8c0,0.1,0,0.2,0.1,0.3c0.1,0.1,0.1,0.4,0.2,0.6c0.3,1.2,0.7,2.4,1.1,3.6C6,85.5,8.7,90.6,12,95.2
				c10.2,14.2,26.2,23.2,43.6,24.5c1.5,0.1,3,0.2,4.6,0.2h1.2c18.7-0.4,36.1-9.5,47-24.7c0.8-1.1,1.5-2.1,2.2-3.3l0.7-1.1
				c0.2-0.4,0.5-0.8,0.7-1.1c0.2-0.4,0.4-0.8,0.6-1.2c1.2-2.2,2.2-4.4,3.1-6.8c0-0.1,0.1-0.2,0.1-0.3c0-0.1,0.1-0.3,0.2-0.5
				c0.1-0.2,0.2-0.6,0.3-0.9c0.1-0.3,0.3-0.8,0.4-1.3c0.1-0.4,0.3-0.8,0.4-1.3c0.1-0.4,0.2-0.8,0.4-1.3c0.1-0.2,0.1-0.4,0.2-0.6
				c0.2-0.7,0.4-1.5,0.5-2.2v-0.1c0.2-0.7,0.3-1.4,0.4-2.1c0.4-2.3,0.7-4.6,0.8-6.9c0.1-1.2,0.1-2.4,0.1-3.7
				C119.5,55.1,118.7,49.6,117.3,44.3z M109.5,63.5L109.5,63.5c-0.1,1.3-0.2,2.5-0.3,3.7L99.7,61L70,41.2L40.3,61l-9.9-0.4L11.7,70
				c-5.2-26.8,12.2-52.8,39-58c26.8-5.2,52.8,12.2,58,39c0.6,3.1,0.9,6.3,0.9,9.5C109.6,61.5,109.6,62.5,109.5,63.5z"/>
			<path class="st1" d="M109.6,60.5c0,1,0,2-0.1,3v0.1c-0.1,1.2-0.2,2.4-0.3,3.6L99.7,61L70,41.2L40.3,61l-9.9-0.4L11.7,70
				c-5.2-26.8,12.2-52.8,39-58c26.8-5.2,52.8,12.2,58,39C109.3,54.2,109.6,57.4,109.6,60.5z"/>
			<path class="st0" d="M60,73.3c0,0,0,0.1,0,0.1C60,73.4,60,73.3,60,73.3z"/>
			<polygon class="st2" points="78.9,61.4 41.1,69.8 42.1,69.2 66.3,53.1 			"/>
		</g>
	</g>
</g>
</svg>
